# xmcd CD database file
# Copyright (C) 1996 Ti Kan
#
# Track frame offsets:
# 	183
# 	12253
# 	27250
# 	40530
# 	52313
# 	62150
# 	72623
# 	86083
# 	96828
# 	109218
# 	123398
# 	134713
# 	147990
# 	161518
# 	173870
# 	188645
# 	201023
# 	213630
# 	225220
# 	238638
# 	251180
# 	266065
#
# Disc length: 3728 seconds
#
# Revision: 1
# Processed by: cddbd v1.4b41PL1 Copyright (c) Steve Scherf et al.
# Submitted via: DiscPlay 3.3.1
#
DISCID=4a0e8e16
DTITLE=Muddy Waters - Double Play
DYEAR=1900
DGENRE=
TTITLE0=The Stuff You Gotta Watch
TTITLE1=Iodine In My Coffee
TTITLE2=Close To You
TTITLE3=You're Gonna Miss Me
TTITLE4=Mean Red Spider
TTITLE5=Diamonds At Your Feet
TTITLE6=You're Gonna Need My Help
TTITLE7=She's All Right
TTITLE8=So Glad I'm Living
TTITLE9=One More Mile
TTITLE10=I Can't Call Her Sugar
TTITLE11=You Can't Lose What You Never Had
TTITLE12=Sad Letter
TTITLE13=I Can't Be Satisfied
TTITLE14=Baby Please Don't Go
TTITLE15=Walking Thru The Park
TTITLE16=Trainfare Blues
TTITLE17=Sittin' Here Drinkin'
TTITLE18=Rollin' And Tumblin'
TTITLE19=All Aboard
TTITLE20=Rock Me
TTITLE21=I'm Ready
EXTD=
EXTT0=
EXTT1=
EXTT2=
EXTT3=
EXTT4=
EXTT5=
EXTT6=
EXTT7=
EXTT8=
EXTT9=
EXTT10=
EXTT11=
EXTT12=
EXTT13=
EXTT14=
EXTT15=
EXTT16=
EXTT17=
EXTT18=
EXTT19=
EXTT20=
EXTT21=
PLAYORDER=
